<svg xmlns="http://www.w3.org/2000/svg" xmlns:xlink="http://www.w3.org/1999/xlink" viewBox="0 0 321.75 489.51"><defs><style>.cls-1{fill:none;}.cls-2{opacity:0.12;}.cls-3{clip-path:url(#clip-path);}.cls-4,.cls-6{fill:#c12906;}.cls-4,.cls-5{fill-rule:evenodd;}.cls-5{fill:#ed6637;}</style><clipPath id="clip-path" transform="translate(0 -7.73)"><rect class="cls-1" y="7.91" width="293.23" height="489.34"/></clipPath></defs><title>Asset 9</title><g id="Layer_2" data-name="Layer 2"><g id="Layer_1-2" data-name="Layer 1"><g class="cls-2"><g class="cls-3"><path d="M216,253.23c5.26,3.1,10.68,6,15.75,9.36,8.71,5.83,17.18,12,25.79,18a7.15,7.15,0,0,0,2.77,1.17,11.48,11.48,0,0,1,10,10.73c.54,7.37-1.93,14.09-4.9,20.66a6.4,6.4,0,0,1-.7,1.28c-3.71,4.81-4.5,10.67-5.81,16.31a124.06,124.06,0,0,1-5.31,17.93c-3.56,9-6.14,18.32-9.65,27.3-3.33,8.53-7.08,16.91-11.08,25.14-3.15,6.48-8.93,10.69-14.58,14.89q-39,29-78,58.07c-7.57,5.64-15,11.47-22.68,17-1.88,1.34-4.43,1.9-6.77,2.39a186.19,186.19,0,0,1-18.41,3.36c-6.32.67-12.78,1-18.95-1.3A11.24,11.24,0,0,1,71,493.91c-1.91-.45-3.5-.84-5.1-1.19-.35-.08-.75.07-1.11,0-1-.15-2.46,0-2.94-.64a4,4,0,0,1-.42-3.19,72.25,72.25,0,0,1,2.77-6.74c1.2-2.81,2.26-5.7,3.68-8.39,1.66-3.16,1.51-6.39,1.12-9.73a4.54,4.54,0,0,1,.31-2.17c4.89-11.73,9.86-23.43,14.72-35.17a5.82,5.82,0,0,1,4.55-4c7.06-1.51,14.07-3.27,21.09-4.95.64-.15,1.26-.37,1.89-.56l.19-.7c-2.41-1.38-4.67-3.22-7.25-4.06a187.06,187.06,0,0,0-21.6-6.18c-7-1.39-14.24-.47-21.35.54-11.22,1.59-19.43,8-26.41,16.38C32,427,28.31,430.38,25.6,434.43,22,439.88,19,445.76,15.78,451.51c-2.25,4.05-4.09,8.35-6.62,12.21-1.29,2-3.57,3.39-5.61,4.76a3.72,3.72,0,0,1-3.07,0C0,468.3-.06,466.83,0,466q3.16-30.15,6.41-60.3c.28-2.62.38-5.28.88-7.86a22.93,22.93,0,0,1,2-6.41c1.69-3.17,3.83-6.11,5.76-9.15,3.9-6.18,9.69-10.22,15.72-14a5.32,5.32,0,0,0,2.15-3c1.83-7.85,3.36-15.77,5.24-23.61A20.17,20.17,0,0,0,38,333c-1.69-9.15-3.49-18.28-5-27.47a46.11,46.11,0,0,1-.35-10.37,13.14,13.14,0,0,1,4.09-8.92,11,11,0,0,0,3.47-8.18,19.12,19.12,0,0,1,5.36-13.38c.84-.87,1.41-1.85.53-3.15-7.52-11.1-11.73-23.72-16.52-36.07-5.39-13.87-9.13-28.26-13.12-42.58-4-14.53-5.71-29.42-7.93-44.24-3.17-21.2,1-41.35,9.25-60.76,2.71-6.36,6.72-12.16,9.5-18.5,4.07-9.29,10.54-16.83,17.15-24.18A76.78,76.78,0,0,1,84,11.34a110.24,110.24,0,0,1,51.77-.67A52.16,52.16,0,0,1,147,15.05a146.84,146.84,0,0,1,15.61,8.62c12,7.93,19.28,19.15,21.71,33.41.4,2.38.75,4.77,1.16,7.39,1.81-1.29,3.52-2.54,5.25-3.76,9.76-6.87,20.91-10,32.44-12.15,12.48-2.28,25-2.68,37,1.77,16.33,6,28.23,16.44,31.88,34.57,2.11,10.49,1.27,20.7-1.17,30.91a18.32,18.32,0,0,1-5.65,9.08c-1.22,1.14-2.67,2.28-4.45,1.27s-1.86-2.88-1.53-4.62c.48-2.51,1.27-5,1.77-7.47,1.39-6.93,1.16-13.93-2.07-20.16-3.4-6.56-6.41-13.47-12.31-18.54-6.78-5.83-14.26-7.59-23-6.14-13.81,2.29-25.54,8.58-36.14,17.42-5,4.14-10.23,8-13.74,13.53-2.37,3.75-4.37,7.73-6.54,11.6a35.09,35.09,0,0,1-2.2,3.77c-3.46,4.68-5,10.22-6.92,15.55-2.63,7.24-4.89,14.63-7.15,22-3.18,10.4-4.11,21.1-3.8,31.93.16,5.61-.17,11.27.43,16.83.86,8,4,15.42,7.06,22.81,1.79,4.37,3.91,8.6,5.85,12.9a4.23,4.23,0,0,0,3.4,2.85,67.54,67.54,0,0,1,6.6,1.92c.56.15,24.08,10.29,25.53,10.89M55.47,237.67l.72-1.29c3,4.41,5.78,8.62,8.69,12.74,1.2,1.7.76,2.69-.87,3.67-4.46,2.69-8.88,5.45-13.31,8.2-.6.37-1.16.78-1.74,1.17l.36.6c.81-.37,1.65-.71,2.44-1.13,7.73-4.09,14.49-10,23-12.56-2.84-2.25-5-2.08-7.25.77L56.92,234.5,40.58,248.4l-.52-.63c5.58-4.89,11.16-9.77,17.11-14.51L67.34,248l3-1.47c-.47-.92-.81-1.67-1.23-2.37-1.86-3.18-3.89-6.26-5.58-9.53A217.15,217.15,0,0,1,46.2,191c-2.46-9.1-4-18.44-6.13-27.63-3.09-13.45-3.59-27.16-2.87-40.79.61-11.61,3-23.13,4.34-34.71C42.11,83,44.45,78.79,46,74.28A84.34,84.34,0,0,1,59.86,48.35c7.77-9.68,16.25-18.6,27-25.16a73,73,0,0,1,40.49-10.73c5.77.12,11.52,1.51,17,2.28.1.1-.06-.15-.29-.26-.81-.4-1.62-.79-2.46-1.11-6-2.26-12.16-3.22-18.47-4A94.66,94.66,0,0,0,90,11c-12.45,3-24.3,7.75-34.44,15.93a123,123,0,0,0-10,8.7,115.15,115.15,0,0,0-7.44,9,65.39,65.39,0,0,0-4.35,5.54c-1.88,2.9-3.52,6-5.24,9-5.38,9.41-10.29,19-13.76,29.34-5.62,16.73-7.85,33.72-5.17,51.25,1.33,8.71,2.21,17.51,3.89,26.16a361.22,361.22,0,0,0,12.83,47.63c4,11.75,8.86,23.2,13.37,34.77a16.54,16.54,0,0,0,1.32,2.26l6,11,17.84-10.74c-2.85-4.18-5.73-8.42-8.63-12.64-.13-.2-.47-.25-.71-.38m71.47-8.21-1-6.51c-2.19-14.22-4.08-28.45-3.07-42.9.7-10,1.34-20,4.59-29.53q3.64-10.72,7.49-21.38a121.57,121.57,0,0,1,12.64-24.82c7.81-12,18-22,28.41-31.66a2.32,2.32,0,0,0,.83-2.65c-3.49-13.49-10-24.93-21.48-33.4a73.4,73.4,0,0,0-14.59-7.9c-7.8-3.42-16-5.11-24.57-3.12C101.45,29,89,36.71,78,46.67c-3.42,3.09-5.55,7.56-8.53,11.2-6.48,7.91-10.76,17-14.19,26.47-3.76,10.39-4.75,21.06-4.35,32.16.53,14.69,3.58,28.71,8,42.58,3.92,12.2,10.12,23.23,16.49,34.26,5.48,9.49,10.47,19.13,18.7,26.8,5.13,4.78,10.39,8.64,17.43,9.17,5,.37,10.05.12,15.38.15M5.36,464.77l.71.42a29.91,29.91,0,0,0,3-3.8c2.11-3.74,4.11-7.55,6-11.4A121.34,121.34,0,0,1,41,415.1a30.33,30.33,0,0,1,12.61-7.41,80.39,80.39,0,0,1,43.61-.25c6.09,1.7,12,3.86,16.83,8.33a3.12,3.12,0,0,0,2.43.37c5.69-1.28,11.32-2.87,17-3.94a15.67,15.67,0,0,0,8.88-5.34c7-7.76,14-15.65,20.87-23.52a3.58,3.58,0,0,0,.82-2.21c-.17-12.76-.49-25.51-3.74-38a5.91,5.91,0,0,0-1.06-2.15c-2-2.49-4.9-3.3-7.82-4A392.14,392.14,0,0,0,108,329.4c-11.13-1.29-22.16-1.63-33.13.93a61.35,61.35,0,0,0-8.09,2.58c-2.5,1-3.14.83-4.57-1.38-3.07-4.75-5.25-10.09-9.7-13.93-3.2-2.76-6.06-5.91-9.08-8.88-2.35-2.3-4.71-4.58-7.07-6.87a3.81,3.81,0,0,0,.08,2.15c3.19,10.77,6.35,21.56,9.63,32.3a10.81,10.81,0,0,1,0,6.7c-3,9.61-5.91,19.26-8.89,28.88a3.43,3.43,0,0,1-1.08,1.44C31.61,377.18,27,381,22.51,384.88a24.63,24.63,0,0,0-7.86,14.59C12,415.35,10,431.36,7.8,447.32L5.36,464.77M203,310.86c-2.16-2.64-4-4.93-5.84-7.13-6.87-8-13.12-16.36-16.37-26.6-1.93-6.09-3.87-12.18-5.89-18.24-6-18-8.78-36.57-9.57-55.44-.31-7.39.37-14.81.42-22.22a108.47,108.47,0,0,1,2.09-20.46c1.76-8.92,5.56-17.15,8.12-25.8a118.08,118.08,0,0,1,6.24-16.3,159.45,159.45,0,0,1,8.13-14.52,49.35,49.35,0,0,1,5.92-8.51,110.13,110.13,0,0,1,24.8-19.51c10.47-6.15,22-8.51,33.92-8.71,10.22-.17,19.42,3.65,27.62,9.73a20.27,20.27,0,0,1,7,9.62c.9,2.49,1.73,5,2.59,7.53l.55-.11c-.69-3.65-1.26-7.34-2.1-11-1.6-6.85-4-13.4-9.42-18.22a96.87,96.87,0,0,0-11.64-9c-7.49-4.89-16-6.72-24.81-6.33-10.51.47-20,4.31-28.84,9.88a168.32,168.32,0,0,0-44.45,41,127.68,127.68,0,0,0-21.46,45c-6.1,23-8,46.41-7.81,70,.08,14.06,1.84,28.11,2.52,42.18.49,10.13,2.5,20,4.81,29.76a3.55,3.55,0,0,0,3.61,3.18c10.43,1.08,20.85,2.38,31.28,3.47a4.93,4.93,0,0,1,4.33,3c1.7,3.42,3.78,6.68,5.17,10.22,1.3,3.32,4,3.64,6.76,4.24.55.12,1.24-.35,2.28-.69m47.32,43.78a4.79,4.79,0,0,0-.73.57c-4.8,6.55-9.64,13.07-14.39,19.66-4.51,6.25-8.55,12.9-14.63,17.81-5.12,4.13-10.54,7.9-15.7,12-4.15,3.3-8.59,4.67-13.76,3a12.29,12.29,0,0,0-8.18.3c-2.93,1.09-5.82,2.27-8.69,3.49-5,2.13-9.82,4.61-14.91,6.44q-27.93,10-56,19.7a9.85,9.85,0,0,0-6.21,5.9c-5.88,13.65-11.87,27.25-17.8,40.87-1.49,3.42-2.94,6.87-4.55,10.65a24.5,24.5,0,0,0,3.83.87c3.11.18,6.24.18,9.36.28,6.64.21,12.85-2.06,19.23-3.32,2.63-.52,5.47-1,7.71-2.33a155.67,155.67,0,0,0,13-9c7.4-5.52,14.66-11.23,22.05-16.74,12.74-9.51,25.55-18.93,38.33-28.39l28.45-21.07a78.75,78.75,0,0,0,6.9-5.29,51.52,51.52,0,0,0,4.94-5.87c1.76-2.22,3.89-4.29,5.09-6.79,3.25-6.75,6.13-13.68,9.07-20.58,1.13-2.66,2-5.44,3-8.16-3.67,4.58-7,9.24-10.27,14a204.31,204.31,0,0,1-37.71,41.46,11.88,11.88,0,0,1-5.24,2.76,17.64,17.64,0,0,0-8.27,3.63c-2.81,2.24-5.59,4.51-8.44,6.7-1.3,1-2.78,1.79-4.09,2.79-3.08,2.37-6.12,4.8-9.14,7.25a9.93,9.93,0,0,0-1.27,1.53l-.62-1c.31-.31.59-.64.92-.92l23.2-19.61c1.64-1.39,3.21-2.88,5.56-2.87,5.16,0,9.13-2.69,12.62-6,5.85-5.53,11.89-11,17.05-17.09a313.18,313.18,0,0,0,25.22-34.66,41.09,41.09,0,0,0,5.07-12m-146.2-126c-4.67-1.73-7.71-5.26-11-8.54-5.57-5.56-10.77-11.32-14.23-18.55-2.33-4.87-5.19-9.5-7.92-14.18-4-6.79-7.88-13.6-10.31-21.12-2.11-6.53-4-13.14-6.17-19.66-4.55-13.77-4.87-28.06-4.38-42.26.44-12.82,5.09-24.74,11.27-35.9,3.19-5.74,7.15-11.05,10.88-16.48a33,33,0,0,1,4.65-5.59,96.13,96.13,0,0,1,32.5-19.84,39,39,0,0,1,23.95-1.21c5.25,1.39,9.95,3.85,14.86,5.92,5.27,2.23,9.63,5.8,13.66,9.72,7.63,7.39,12.14,16.63,15.23,26.65.32,1,.55,2.09.92,3.51,3.21-3.08,7.35-4.57,6-10.52-1.48-6.38-2.59-12.79-5.67-18.62-4.68-8.86-12-15.21-20.31-20.45-4.16-2.61-8.56-4.64-13.5-5.14-3.29-.34-6.6-.48-9.9-.62-15.36-.65-30.13,1.79-43.48,9.7C82.76,30.42,74.67,36,69,44.3c-1.54,2.23-3.21,4.36-4.79,6.56C56.88,61,50.52,71.71,47.23,83.86c-3.87,14.3-5.19,29-5.17,43.75,0,19.07,3,37.84,7.54,56.43a210.16,210.16,0,0,0,12.59,37.2c3.08,6.81,7.29,13.1,10.73,19.77,1.36,2.64,3.69,3.72,5.83,5.31,7.37-7.64,14.88-14.71,25.37-17.7m44.1,58.6.31-.13a11,11,0,0,0-.2-1.55c-2.74-10-3.71-20.15-4.66-30.4-2.07-22.3-3-44.57-1.42-67a220.83,220.83,0,0,1,9.52-51.31,150.72,150.72,0,0,1,9.24-21.6c5-10,12.34-18.37,19.49-26.88,9-10.76,20.12-19.08,31.42-27.17a67,67,0,0,1,25.69-11.45c3.08-.63,6.24-.89,9.36-1.32a56.15,56.15,0,0,0-8.66-.59,104.3,104.3,0,0,0-27.47,4.42,73.15,73.15,0,0,0-12.6,4.78c-7.55,3.81-13.75,9.54-20.13,15A172.91,172.91,0,0,0,151,100.8c-11.38,15.55-17.78,33.51-23.11,51.84a119.22,119.22,0,0,0-4.32,39c.55,11.82,2.47,23.59,3.89,35.37.55,4.54,1.21,9.08,3.35,13.25,1.06,2.06.89,4.21.73,6.49a97.44,97.44,0,0,0-.15,13.28,17.8,17.8,0,0,0,4,9.89c1.72,2.18,3.31,4.46,5,6.7l7.88,10.63m-41.49-56.49-.3-1a9,9,0,0,0-2.88.36,85.61,85.61,0,0,0-9.35,5c-7.61,4.95-13.45,11.71-18.87,18.89-8,10.57-15.32,21.51-18.71,34.54a42.54,42.54,0,0,0-1.35,10.24c0,5.26.36,10.53.74,15.78a10.82,10.82,0,0,0,1.29,4.48c2.27,4,4.84,7.73,7.16,11.66.72,1.21,1.4,1.6,2.61.89,3.17-1.86,6.61-3.39,9.44-5.67,6.57-5.29,13.66-10.25,19.07-16.59,12-14.09,23.13-29,34.58-43.52a3.21,3.21,0,0,0,.89-2c-.45-3.41-1.08-6.79-1.67-10.31-6.08,7.19-13.27,12.73-22.64,15,9.36-3.45,17.16-8.94,22.75-17.32-3.29,1.87-6.36,4.05-9.54,6.06-4.75,3-9.4,6.2-14.41,8.68-6.77,3.36-13.54,3-19.85-1.62a9.36,9.36,0,0,1-4-6.77C81,250.34,84,244.76,89,240.08c4-3.79,9-6,14.21-7.58a22.2,22.2,0,0,0,3.54-1.78m44.39,177.76.22.37c1.24-.38,2.48-.74,3.71-1.14,4.74-1.56,9.52-3,14.19-4.73,8.77-3.29,17.43-6.88,26.21-10.13,6.05-2.24,12.27-4,17.74-7.63A120.11,120.11,0,0,0,249.7,347c4.81-7.91,8.78-16.05,10.32-25.25.07-.42.09-.85.14-1.41-5.74,3.35-8.26,5.88-12.19,11.61-8.1,11.81-16.81,23.16-27.25,33-8.17,7.73-16.6,15.17-23.89,23.79a9.09,9.09,0,0,1-2.57,2.06c-2.12,1.14-4.11.28-4.29-2.09a13.1,13.1,0,0,1,.81-5.83,37.25,37.25,0,0,1,4.23-7.39c6-8.33,12.19-16.53,18.25-24.83,1.33-1.82,2.42-3.81,3.86-6.12-1,.18-1.4.24-1.83.35q-8.76,2.33-17.51,4.67c-8.31,2.24-16.63,4.47-24.92,6.77-.64.18-1.63.89-1.62,1.34,0,4.91.12,9.82.44,14.71a59.25,59.25,0,0,0,1.25,7.81,6.55,6.55,0,0,1-1.54,6c-1.83,2.07-3.71,4.09-5.57,6.14l-14.67,16.17m99.18-111.64c.48,4.29,1,8.3,1.37,12.34s-1,7.78-2.74,11.8c-2.6-4.15-4.19-7.88-3.36-12.28a18.06,18.06,0,0,0,.3-4.15c-.1-2-.4-4.09-.62-6.11-3.38.26-3.82.62-3.66,2.5.39,4.48.8,9,1.07,13.45a15,15,0,0,1-1.71,8.67c-.29.49-.88,1.2-1.27,1.16a2,2,0,0,1-1.51-1.12,24,24,0,0,1-.67-4.88c-.16-5.78-.2-11.57-.29-17.4-4.49.53-4.37.52-4,4.39.52,5.17,1.12,10.36,1.14,15.55,0,2.83-1,5.68-1.76,8.48-.44,1.65-1.8,1.66-3,.84a3.53,3.53,0,0,1-1.28-2.07c-.75-3.93-1.56-7.87-2-11.85s-.36-8.14-.52-12.51a32.75,32.75,0,0,0-4,1.56,2.11,2.11,0,0,0-.94,1.65c.49,5,1,10,1.72,14.9a32.07,32.07,0,0,1-1,13c-.2.75-1,1.35-1.47,2a9.63,9.63,0,0,1-1.88-1.72,8.07,8.07,0,0,1-1-2.71c-.87-4.28-1.84-8.55-2.42-12.87-.52-3.89-.59-7.85-.87-11.9l-4.64,1.25c.33,4.13.85,8.19.94,12.26a119.11,119.11,0,0,1-.26,15.78c-.51,4.64-2.54,8.06-8.17,9.18-10.06,2-19.92,5-29.87,7.63-2.36.62-2.71.41-3.37-2-1.16-4.15-2.26-8.31-3.49-12.43a3.15,3.15,0,0,1,1.34-4c9.64-7,19.19-14.2,28.76-21.34.74-.55,1.42-1.19,2.74-2.32-3.41,0-3.93-2.22-4.88-4-1-2-2-4-3-5.94-.9-1.73-1.85-3.45-2.77-5.17a.92.92,0,0,0-.12,1q3,6.29,6.05,12.57a3.32,3.32,0,0,0,1,1.32c1.29.86.88,1.45-.15,2.15-6.3,4.32-12.57,8.67-18.86,13-4.22,2.91-8.46,5.79-12.38,8.48a61.86,61.86,0,0,0-6.1-4.84c-3.37-2.05-6.9-3.85-10.45-5.59-1.83-.9-1.75-1.74-.55-3.11,1.83-2.09,3.58-4.25,5.29-6.44a2.64,2.64,0,0,0,.64-1.8c-.91-4.84-2.12-9.63-2.85-14.5a26.38,26.38,0,0,0-5-12.55c-.59-.77-1.08-1.61-1.61-2.43l-10.38-16.16a9,9,0,0,0,0,1.3c1.57,6.48,3.09,13,4.75,19.43a30.25,30.25,0,0,0,5.51,11.33c2.69,3.42,5,7.14,7.42,10.77a2,2,0,0,1,.17,1.74c-2.11,2.93-4.36,5.75-6.49,8.67a2.38,2.38,0,0,1-2.86,1c-7.74-2-15.44-4.12-23.23-5.89-6.14-1.39-12.37-2.45-18.59-3.42-1.69-.26-3.88-.18-5.19.71-2.89,2-5.37,4.54-8,6.85,4.26.3,8.39.68,12.52.88,12.1.58,24.06,1.89,35.7,5.5,9.83,3.05,19.62,6.16,28.55,11.44.51.3,1.19.7,1.32,1.17,1.1,4.22,2.1,8.46,3.09,12.7.46,2,.34,4.23,1.32,5.85,1.54,2.54,1.81,5.18,2,7.95.33,4.27.56,8.56,1.16,12.8.36,2.53.12,4.67-1.68,6.52-.62.64-1.34,1.2-1.94,1.86q-9.76,10.84-19.48,21.7c-.48.53-.88,1.13-1.32,1.69l.39.43a15.74,15.74,0,0,0,2.63-1.78c1.71-1.73,3.27-3.59,4.9-5.39,5.13-5.66,10.18-11.39,15.43-16.93,1.5-1.59,2.46-3.24,2.2-5.29-.61-4.8-1.7-9.51-1.34-14.43a53,53,0,0,0-.53-8.51c-.15-1.63.56-2.41,2.09-2.8,3.57-.9,7.14-1.79,10.66-2.87,12.06-3.67,24.5-5.92,36.29-10.72a237.41,237.41,0,0,0,22.3-10.64,122.28,122.28,0,0,0,18.05-11.9,8,8,0,0,0,1.67-1.8c4.44-6.62,5.71-14.4,7.75-21.87a7.37,7.37,0,0,0-1.26-6.29c-2.28,3.75-5.72,5.27-10,5.72,1.55,5,.63,9.61-.93,14.19-.2.58-1,1.39-1.41,1.35a2.11,2.11,0,0,1-1.46-1.37,29,29,0,0,1-.48-4.74c-.11-2.76-.14-5.52-.21-8.58l-3,.89m5.91,40.89c-.47.37-.62.43-.67.53-6.71,13.08-15.06,25-25.85,35-9.33,8.68-19.42,16.07-31.91,19.81-7.1,2.12-14,5.07-20.89,7.71-5.05,1.93-10.06,4-15.1,5.94-2.38.93-4.81,1.76-7.19,2.69-4.68,1.82-9.29,3.87-14,5.47-3.66,1.23-7.51,1.92-11.28,2.85-12.2,3-24.42,6-36.58,9.17a6.56,6.56,0,0,0-3.83,3c-4.72,9.75-9.15,19.64-13.79,29.43a5.67,5.67,0,0,0,.09,5.13,6.55,6.55,0,0,1,.81,3.31,25.93,25.93,0,0,1-1.76,6.16c-2.45,5.66-5.11,11.24-7.6,16.89a1.79,1.79,0,0,0,.66,1.62c1.78.84,3.47-.09,4.41-2.19q11.82-26.33,23.66-52.64a11.71,11.71,0,0,1,8.74-6.94c14.5-3.2,29-6.41,43.4-10a130,130,0,0,0,27.18-10.38c6.52-3.3,13.15-5.65,20.59-3.65,3.42.92,6.19-.31,8.85-2.42,3.36-2.67,6.92-5.1,10.37-7.68q2.5-1.87,4.9-3.87c6.33-5.27,10.75-12.12,15.43-18.76,5.28-7.48,10.84-14.78,15.94-22.37a33.71,33.71,0,0,0,5.46-13.81M169.1,212.37l-.36.13a14,14,0,0,0,0,1.44c1,7.63,2.11,15.26,3.1,22.9A96,96,0,0,0,193,285.94c5.12,6.29,10.6,12.27,16,18.33.37.41,1.34.28,2,.4l.14-.53-1.67-2.23c.86.39,1.26.44,1.42.66,1.16,1.61,2.61,1.35,4.25.9,7.84-2.14,15.7-4.21,23.55-6.3l4.5-1.17c-.44-.47-.55-.67-.72-.76-7-3.28-13.93-6.6-20.94-9.8-10.48-4.78-19.89-11-26.21-20.85q-8.26-12.84-15.47-26.35c-3.29-6.16-5.7-12.8-8.43-19.25-.91-2.15-1.6-4.41-2.38-6.61M96.64,309.61a5.22,5.22,0,0,0,.81.44q21.61,5.46,43.23,10.86a2,2,0,0,0,1.67-.63c2.1-2.67,4.13-5.4,6.12-8.16a1.67,1.67,0,0,0,.15-1.45,41.8,41.8,0,0,0-2.58-4.25c-3.55-5.1-8-9.63-9.67-15.89-.86-3.29-1.77-6.57-2.58-9.87-1-4.14-2-8.29-3.06-13a32.24,32.24,0,0,0-3.35,3.09Q116.66,284.21,106,297.71l-9.4,11.9M170,353.13c.64-.1,1-.12,1.31-.21,10.77-2.94,21.53-6,32.33-8.77a6.1,6.1,0,0,0,4.75-4.64,20.06,20.06,0,0,0,.9-4.68c.13-4.43,0-8.87.07-13.31,0-4-1.25-7-5.52-8-2.68-.66-5.34-2.24-7.61.9a12.2,12.2,0,0,1-2.58,2.08q-13.39,10.39-26.76,20.82a2.27,2.27,0,0,0-.76,1.86c1.2,4.62,2.52,9.21,3.86,14m21.63-95.73c1,1.66,2,3.15,2.94,4.67,4.34,7,10,13,17.13,17,10.63,5.84,21.74,10.8,32.67,16.09a3,3,0,0,0,1.79.19c2.72-.54,5.43-1.12,8.13-1.79,2-.48,3-3.36,2-5.07-2.76-4.75-7.23-7.55-11.6-10.54a122,122,0,0,0-53.06-20.53M78,246.84c-3.28-1.51-5.09-4.22-6.89-7.19-8.38-13.87-15.21-28.48-19.43-44.06-3.8-14-7.63-28.17-8.62-42.81-.68-10-1.75-19.93-1.73-29.89,0-8,1.41-16,2.16-24a84.09,84.09,0,0,1,8.24-29.09c5-10.3,11.73-19.47,18.52-28.62,3.42-4.6,8.12-7.72,12.57-11.11C99.28,17.44,118,13.33,138.33,15.41a12.65,12.65,0,0,0,1.52,0,56.71,56.71,0,0,0-23.08-1.62c-13.23,1.79-25.48,6.08-35.86,14.48-14.71,11.89-27,25.81-33.3,44.12-2,5.74-5,11.14-5.54,17.37-.49,5.39-1.32,10.74-2,16.11-1.05,7.91-2.7,15.76-2.25,23.8.56,10.17.56,20.36,2.4,30.48,2.63,14.44,5.68,28.75,10.52,42.62a208.34,208.34,0,0,0,18.54,40c1.62,2.67,3.44,4.51,6.39,5.43,1.21.38,1.8.23,2.36-1.31m75.1,66.38,22.39-1c4.58-.2,9.15-.36,13.72-.61,2.57-.14,3.2-1.23,2.13-3.46-1.59-3.32-3.13-6.66-4.82-9.92a2.89,2.89,0,0,0-1.93-1.31c-6.89-.81-13.79-1.53-20.69-2.24-5-.52-10-1-15.31-1.51,1.66,6.86,2.12,13.64,4.5,20m95.13,16.06-.46-.48c-.41.22-.83.43-1.23.67-3.54,2.14-6.94,4.59-10.67,6.34a23.65,23.65,0,0,0-9.22,7.19c-10.54,14-22.14,27.28-31.55,42.17a8.34,8.34,0,0,1-1,1.1l-.49-.39c9.85-16.1,22.62-30.08,33.93-45.77-3.83,1.24-6.8,2-9.11,5.47-7.47,11.27-15.68,22-23.43,33.14a48.91,48.91,0,0,0-4.13,8.33,2.14,2.14,0,0,0,.44,2,2.48,2.48,0,0,0,2.23-.18,32.87,32.87,0,0,0,4.06-3.83c3-3.28,5.6-6.95,8.87-9.9,11.51-10.38,23-20.76,32.15-33.37,3.09-4.24,6.39-8.33,9.6-12.49m8.42-261.43.07.28c3,1.82,6.06,3.53,9,5.48,5.69,3.83,8.68,9.82,11.9,15.55s5.27,12.13,4.88,18.89c-.23,4-1.11,8-1.63,12a16.7,16.7,0,0,0-.2,3.91c.2,1.9,1.19,2.46,2.64,1.25,1.87-1.57,3.91-3.35,4.92-5.49,4.4-9.36,5.43-19.06,2-29.05-1.75-5.09-3.8-10-8.47-13a84.45,84.45,0,0,0-13.65-7c-3.6-1.44-7.59-1.91-11.41-2.81m-149,161.63c-.39,2.92-2.8,3.25-4.8,4.09a72.79,72.79,0,0,0-8.39,3.6c-6.7,3.86-11.35,9.34-12.08,17.39-.43,4.7,1.72,8.65,5.68,9.85,6.71,2,13.62,3,20-.82s12.72-8.17,18.94-12.46c2.09-1.44,2.5-3.81,2-6.4-.32.14-.55.17-.67.3-6.55,7-14.89,10.47-24.19,11.88-4.38.66-9.23-1.75-10.66-5.18-1.09-2.61-.52-5.07.73-7.41a23.88,23.88,0,0,1,10.82-10c2.69-1.35,5.53-2.39,8.66-3.72l-6-1.07m37.95,93.68c3.07,1.55,5.86,2.91,8.6,4.36s5.74,2.83,7.57,5.61c.79,1.2,1.51.48,2.25,0,8.19-5.61,16.37-11.24,24.59-16.81,1.36-.92,2.07-1.93,1.56-3.57a1.36,1.36,0,0,0-.41-.14q-17.79.77-35.57,1.57a2.6,2.6,0,0,0-1.71.61c-2.28,2.67-4.46,5.42-6.87,8.38M75.18,250.7l-.3-.53a20.85,20.85,0,0,0-4.48,1.39c-5.6,3.22-11.09,6.63-16.64,9.94-6.36,3.79-11.06,8.73-11.63,16.58a6.1,6.1,0,0,1-.47,2.24c-1.58,3.16.08,4.75,2.59,6.36,4.74,3.05,10.16,1.47,12-3.88a83,83,0,0,1,10.29-19.69c2.83-4.18,5.77-8.28,8.66-12.42m-2.47,79,1.49-.21c7.53-1.25,15-2.56,22.76-2a351.35,351.35,0,0,1,54.47,8.6,28.16,28.16,0,0,1,5.68,2,7.06,7.06,0,0,1,4.31,5.67c.48,3.5,1.38,6.95,1.88,10.45.28,2,1.09,2.85,3.51,2.42-.3-1.19-.56-2.35-.89-3.48-.15-.52-.53-1-.64-1.5-.82-3.71-1.51-7.45-2.44-11.13a3.87,3.87,0,0,0-1.87-2.22c-4.24-2.06-8.49-4.14-12.88-5.86-9.52-3.73-19.17-7-29.58-7.24-2.63-.06-5.25-.53-7.87-.83-8.62-1-17.23-2-25.85-3a2.06,2.06,0,0,0-1.32.31c-3.47,2.52-6.91,5.09-10.75,7.94M4.6,464.9l-.16-.06q1.89-13.51,3.77-27C10.16,423.91,12.13,410,14,396.12a2.85,2.85,0,0,0-1.16-2.26c-2.52-1.55-4.19-.62-4.51,2.38-.69,6.42-1.34,12.85-2,19.27Q3.65,440.68,1,465.84a5.4,5.4,0,0,0,.49,1.81,6.15,6.15,0,0,0,2.18-.75c.51-.44.64-1.32.94-2M126.92,239.09c-.46-1.36-1.12-2.36-1-3.3.27-3.38-.8-4.67-4.21-4.39a25,25,0,0,0-14,5.89,22.31,22.31,0,0,0-4.82,5.86c-1.32,2.23-.15,4.46,2.34,5.2a9.34,9.34,0,0,0,2.87.32,23.16,23.16,0,0,0,12.58-4.42c2.31-1.59,4.35-3.58,6.24-5.16m133.16,48.47c.59-1.84.43-2.79-1.16-4.14-2.63-2.23-5.29-4.44-8.08-6.47-5.1-3.71-9.84-8-15.87-10.22-13-4.74-26.13-9.31-39.21-13.93-2.58-.91-5.21-1.68-8.36-2.68,1.68,3.39,2.74,6.3,6.65,6.7,2.81.29,5.55,1.26,8.35,1.76a100.23,100.23,0,0,1,32.71,12.5c8.58,5,16.62,10.93,25,16.49M73.93,494.63l12.43-28.57c3.35-7.7,6.65-15.43,10.11-23.09a15.64,15.64,0,0,1,3.28-4.85,12.24,12.24,0,0,1,4.56-2.41c3-1,6.17-1.61,9.19-2.61,5.6-1.87,11.14-3.91,16.7-5.89,2-.71,4-1.45,6-2.18a1.92,1.92,0,0,0-1.43-.2c-4.14.91-8.28,1.8-12.4,2.77-5.93,1.4-11.85,2.89-17.78,4.3-3.42.81-6.49,2.11-8,5.55q-12.27,27-24.49,54.07c-.77,1.7-.27,2.54,1.88,3.11M175.26,256.88c.15.58.27,1.17.46,1.75,2.13,6.54,4.19,13.09,6.42,19.59a54,54,0,0,0,9.29,16.9q5.74,7,11.56,14c.85,1,1.57,2,.2,3.11l4.3,2a9.87,9.87,0,0,1-.24-1.49c0-2,.17-3.92.18-5.88a2.6,2.6,0,0,0-.5-1.54c-1.18-1.45-2.54-2.75-3.66-4.23-2.13-2.81-4-5.79-6.24-8.55-8.74-11-16.91-22.24-21.75-35.59m-89.78,169c-.25.49-.46.84-.62,1.22q-7.35,17.47-14.67,35a6.26,6.26,0,0,0-.27,2.2c-.07,2.72.8,5.39-.5,8.17-2.57,5.46-4.78,11.1-7.19,16.63-.52,1.2-.55,2.4.66,2.81a2.89,2.89,0,0,0,2.52-1,24.89,24.89,0,0,0,1.88-4.12c2.29-5,4.7-9.89,6.85-14.92,1-2.4,1.71-4.92.09-7.56a5.16,5.16,0,0,1-.08-5.13c4.51-9.46,8.86-19,13.27-28.52,1.36-2.92,1.36-3-1.94-4.76M115.6,231.73C108.77,232.23,99.66,238,96,244c-2.75,4.49-1.83,8,2.88,10.23a10,10,0,0,0,4,.87,30.69,30.69,0,0,0,20.76-7.24,32.07,32.07,0,0,0,4.93-5.82c.43-.58.18-1.66.24-2.51a19.33,19.33,0,0,0-4.37,3,27.25,27.25,0,0,1-15.5,7c-2.7.24-5.54.18-6.9-2.65s.29-5.11,2-7.2c3-3.79,7.19-6,11.6-7.9M40.86,285.42,36,297.3c7.92,3.6,14.7,8.84,18.64,17.26,0-5.13-.54-10.18-.34-15.2.15-3.85-1.4-6.08-4.54-7.92s-6.05-4.07-8.91-6m123.46,72.16c0,.63,0,1,0,1.43.23,7.42.49,14.84.65,22.26a3.85,3.85,0,0,1-.79,2.43c-7.76,8.85-15.58,17.64-23.38,26.44,2.2,1.59,3,1.52,4.82-.45q11.58-12.82,23.17-25.64a5.57,5.57,0,0,0,1.43-4.93c-.56-4-.75-8.13-1.13-12.19a63.27,63.27,0,0,0-.78-6.38c-.38-1.89-1.65-3-4-3m18.77-116.8-.47.63c1.27,2.38,2.5,4.78,3.84,7.11a2.74,2.74,0,0,0,1.49,1c2.84.91,5.74,1.66,8.55,2.64,9.23,3.22,18.43,6.52,27.65,9.78,3.1,1.1,6.22,2.15,9.34,3.22-15.62-10.66-32.63-18.33-50.41-24.34M31.69,374.87a8.43,8.43,0,0,0,5.65-6.15c2.45-8.6,5.16-17.13,7.76-25.7.29-1,.48-2,.76-3.18A39.29,39.29,0,0,1,42,338.9c-1.71-.6-2.41-.17-2.78,1.7-1.51,7.62-3.16,15.21-4.81,22.8-.81,3.7-1.73,7.37-2.7,11.47m110.58,38.41,0-1.11c-1.25-.13-2.57-.61-3.73-.34-12.08,2.8-24.13,5.73-36.19,8.62-4.92,1.18-9.83,2.33-14.75,3.49l-.16.7c1.27.47,2.54,1.33,3.81,1.33a22.73,22.73,0,0,0,5.26-1c9.16-2.26,18.32-4.53,27.47-6.85,6.1-1.55,12.18-3.2,18.27-4.8m-97-74.5.53-.53L34.3,302.42l-.63.13a10,10,0,0,0,0,1.75q2.91,16.07,5.9,32.12a2,2,0,0,0,1.12,1.25c1.49.48,3,.77,4.58,1.13M40,285.41l-.85-.5c-1,1-2,2-2.86,3.16-3.4,4.5-3.7,8.46-.84,11.92a35.77,35.77,0,0,0,2.95,2.55q4.71,4.56,9.35,9.19c4.69,4.69,9.86,8.95,12.79,15.15A50.5,50.5,0,0,0,64,332.32l.43-.26c-.68-1.14-1.34-2.3-2.05-3.43-3-4.66-6.23-9.15-8.82-14-2-3.81-4.22-7.37-7.66-9.95s-7.35-5.05-10.95-7.5L40,285.41m178.11,21c-1.28.58-3.06-.13-3,2.16A87.64,87.64,0,0,0,218,331.81a35.52,35.52,0,0,0,1.54,3.79l.85-.24c0-9.64.43-19.32-2.28-29M31,371.33c-8.41,5.49-14.19,12.73-19.18,20.76l3.7,2.36a26.88,26.88,0,0,1,8.14-11.84c1.6-1.32,2.92-3.06,4.65-4.13,2.76-1.71,2.14-4.36,2.7-7.15m197.79-43.12.92-.09a74.78,74.78,0,0,0,.15-25.47c-3.28.57-3.29.62-3.11,3.62.19,3.31.17,6.64.48,9.93.39,4,1,8,1.56,12m32.31-45-.36.62c1.15,3.5.82,4.55-2.15,6.94a7.29,7.29,0,0,0-1.26,1.08,8.76,8.76,0,0,0-.79,1.54c.55.24,1.11.69,1.66.68a10.34,10.34,0,0,0,7.87-3.66c1-1.17,1.24-2.71,0-3.76a46.49,46.49,0,0,0-5-3.43m-75.83,12.6,0-.52c-.92-.15-1.83-.34-2.76-.44-8.75-1-17.49-2.39-26.27-2.85-5-.26-7.93-2.31-10.37-6.29-2-3.21-4.43-6.1-6.68-9.14,3.32,4.89,6.22,10,9.23,15.07.29.49,1.26.72,1.95.8q15.74,1.65,31.48,3.2c1.12.11,2.26.11,3.39.16M166.34,203c.84,17.19,2.7,34.22,8.07,50.69-4.32-16.64-5.56-33.77-8.07-50.69m82.07,113.81c1.8-6.56,1-12.88-.42-19.21-1.46,0-1.94.52-1.78,2.07.29,2.66.2,5.35.26,8,.07,3.06-1.1,6.35,1.93,9.11m-9.82,5.44c1.8-6.4,1.9-19.51.32-22.83-.46,1.12-1,1.79-1,2.45.09,2.77.47,5.53.52,8.29.06,3.32-.11,6.64-.14,10a15.69,15.69,0,0,0,.26,2.12M30.9,369.77c-10,4.67-15.87,12.95-20.47,22.4a78.79,78.79,0,0,1,20.47-22.4M255.26,295c-1.42,1.67-1.25,12.38.07,14.26,1.64-4.76.82-9.39-.07-14.26M53.78,293.19l.76-5.13-6.17,1.38,5.41,3.75m73.63-55.24.88-.26q-.46-2.82-.92-5.64c-.35-2.14-1-2.45-3.17-1.55a5,5,0,0,1,2.66,5.05,8.36,8.36,0,0,0,.55,2.41m72.92,144.45.5.48,10.34-10.32-.43-.43-10.41,10.27m16.76-15.82.38.4,8.25-7.89-.41-.43-8.22,7.92" transform="translate(0 -7.73)"/><path d="M55.55,237.63a27.21,27.21,0,0,1-2.14,2.44q-5.17,4.68-10.43,9.26a11.73,11.73,0,0,1-2.09,1.18,5.27,5.27,0,0,1,.76-1.19q6.2-5.55,12.47-11a5.48,5.48,0,0,1,1.44-.65" transform="translate(0 -7.73)"/><path d="M80.43,264.1A43,43,0,0,0,77.35,270c-1.73,5-3.32,10.13-4.64,15.28-.42,1.65,0,3.58.34,5.33s1.57,2.28,3.18,1.63a21.54,21.54,0,0,0,10-7.49c-1.06.52-2.09,1.12-3.19,1.56-3,1.2-5.65,0-6.58-3.08-1.93-6.3,0-11.63,4.57-16.2a23.26,23.26,0,0,1-1.6,2.83,14,14,0,0,0-2.45,12c.8,3.7,3.34,5.26,6.52,3.23A29.23,29.23,0,0,0,90.12,279c1.74-2.12,2.88-4.72,4.31-7.1.4-.67.87-1.29,1.31-1.93l.52.31c-.57,1.19-1.07,2.43-1.74,3.57-1.76,3-3.57,5.95-5.39,8.9a25.79,25.79,0,0,1-11.31,9.84c-3.55,1.67-5.65.49-6-3.4-.54-5.86,1.34-11.26,3.44-16.56a78.34,78.34,0,0,1,3.62-7.25A11.35,11.35,0,0,1,80,263.83l.4.27" transform="translate(0 -7.73)"/></g></g><path class="cls-4" d="M192.34,0" transform="translate(0 -7.73)"/><path class="cls-5" d="M256,7.73" transform="translate(0 -7.73)"/><line class="cls-6" x1="321.75" x2="300.68"/></g></g></svg>